<?xml version="1.0" standalone="no"?><!DOCTYPE svg PUBLIC "-//W3C//DTD SVG 1.1//EN" "http://www.w3.org/Graphics/SVG/1.1/DTD/svg11.dtd"><svg t="1686415216643" class="icon" viewBox="0 0 1024 1024" version="1.1" xmlns="http://www.w3.org/2000/svg" p-id="13469" xmlns:xlink="http://www.w3.org/1999/xlink" width="200" height="200"><path d="M512 512m-448 0a448 448 0 1 0 896 0 448 448 0 1 0-896 0Z" fill="#8789E0" p-id="13470"></path><path d="M256 256m32 0l448 0q32 0 32 32l0 448q0 32-32 32l-448 0q-32 0-32-32l0-448q0-32 32-32Z" fill="#FFFFFF" p-id="13471"></path><path d="M601.933 528.28l-163.587 81.794c-8.993 4.496-19.928 0.851-24.424-8.141a18.204 18.204 0 0 1-1.922-8.141V430.204C412 420.15 420.15 412 430.204 412c2.827 0 5.614 0.658 8.142 1.922l163.587 81.794c8.992 4.496 12.637 15.43 8.141 24.423a18.204 18.204 0 0 1-8.141 8.141zM702 704h24a6 6 0 0 1 6 6v24a6 6 0 0 1-6 6h-24a6 6 0 0 1-6-6v-24a6 6 0 0 1 6-6z m0-60h24a6 6 0 0 1 6 6v24a6 6 0 0 1-6 6h-24a6 6 0 0 1-6-6v-24a6 6 0 0 1 6-6z m0-60h24a6 6 0 0 1 6 6v24a6 6 0 0 1-6 6h-24a6 6 0 0 1-6-6v-24a6 6 0 0 1 6-6z m0-60h24a6 6 0 0 1 6 6v24a6 6 0 0 1-6 6h-24a6 6 0 0 1-6-6v-24a6 6 0 0 1 6-6z m0-60h24a6 6 0 0 1 6 6v24a6 6 0 0 1-6 6h-24a6 6 0 0 1-6-6v-24a6 6 0 0 1 6-6z m0-60h24a6 6 0 0 1 6 6v24a6 6 0 0 1-6 6h-24a6 6 0 0 1-6-6v-24a6 6 0 0 1 6-6z m0-60h24a6 6 0 0 1 6 6v24a6 6 0 0 1-6 6h-24a6 6 0 0 1-6-6v-24a6 6 0 0 1 6-6z m0-60h24a6 6 0 0 1 6 6v24a6 6 0 0 1-6 6h-24a6 6 0 0 1-6-6v-24a6 6 0 0 1 6-6zM298 704h24a6 6 0 0 1 6 6v24a6 6 0 0 1-6 6h-24a6 6 0 0 1-6-6v-24a6 6 0 0 1 6-6z m0-60h24a6 6 0 0 1 6 6v24a6 6 0 0 1-6 6h-24a6 6 0 0 1-6-6v-24a6 6 0 0 1 6-6z m0-60h24a6 6 0 0 1 6 6v24a6 6 0 0 1-6 6h-24a6 6 0 0 1-6-6v-24a6 6 0 0 1 6-6z m0-60h24a6 6 0 0 1 6 6v24a6 6 0 0 1-6 6h-24a6 6 0 0 1-6-6v-24a6 6 0 0 1 6-6z m0-60h24a6 6 0 0 1 6 6v24a6 6 0 0 1-6 6h-24a6 6 0 0 1-6-6v-24a6 6 0 0 1 6-6z m0-60h24a6 6 0 0 1 6 6v24a6 6 0 0 1-6 6h-24a6 6 0 0 1-6-6v-24a6 6 0 0 1 6-6z m0-60h24a6 6 0 0 1 6 6v24a6 6 0 0 1-6 6h-24a6 6 0 0 1-6-6v-24a6 6 0 0 1 6-6z m0-60h24a6 6 0 0 1 6 6v24a6 6 0 0 1-6 6h-24a6 6 0 0 1-6-6v-24a6 6 0 0 1 6-6z" fill="#9294F1" p-id="13472"></path></svg>